<svg width="326" height="48" viewBox="0 0 326 48" fill="none" xmlns="http://www.w3.org/2000/svg">
<path d="M223.825 5C213.428 5 205 13.5068 205 24.0001C205 34.4939 213.428 43 223.825 43C234.222 43 242.65 34.4939 242.65 24.0001C242.65 13.5075 234.222 5.00095 223.824 5.00095L223.825 5ZM232.458 32.4036C232.377 32.5365 232.272 32.6521 232.147 32.7437C232.023 32.8354 231.881 32.9014 231.731 32.9378C231.581 32.9743 231.426 32.9806 231.274 32.9563C231.121 32.932 230.975 32.8776 230.844 32.7963C226.424 30.0713 220.86 29.4542 214.307 30.9653C214.004 31.0349 213.685 30.9801 213.422 30.8129C213.158 30.6458 212.972 30.3798 212.902 30.0736C212.868 29.922 212.863 29.7651 212.889 29.6117C212.915 29.4583 212.97 29.3115 213.052 29.1798C213.134 29.0481 213.241 28.934 213.367 28.844C213.492 28.7541 213.634 28.69 213.785 28.6556C220.956 27.0018 227.107 27.7138 232.069 30.7747C232.2 30.8558 232.315 30.9624 232.406 31.0882C232.496 31.214 232.562 31.3567 232.598 31.508C232.634 31.6593 232.64 31.8163 232.616 31.97C232.592 32.1237 232.538 32.2709 232.458 32.4036ZM234.762 27.2301C234.337 27.9271 233.433 28.1473 232.743 27.7184C227.683 24.5793 219.97 23.67 213.985 25.5038C213.612 25.6176 213.21 25.5776 212.867 25.3926C212.523 25.2075 212.267 24.8926 212.153 24.5168C212.041 24.1408 212.081 23.7352 212.264 23.3889C212.448 23.0426 212.76 22.7839 213.132 22.6693C219.969 20.5755 228.468 21.5897 234.278 25.1937C234.969 25.6226 235.187 26.5345 234.762 27.2301ZM234.96 21.8428C228.893 18.2057 218.882 17.8712 213.09 19.6459C212.16 19.9307 211.176 19.4007 210.894 18.4619C210.759 18.0108 210.806 17.5239 211.026 17.1082C211.246 16.6925 211.621 16.382 212.068 16.2449C218.717 14.2074 229.771 14.601 236.757 18.7865C236.956 18.9054 237.13 19.0627 237.268 19.2495C237.407 19.4363 237.508 19.6489 237.565 19.8751C237.622 20.1013 237.635 20.3367 237.602 20.5678C237.569 20.7988 237.491 21.021 237.372 21.2217C236.878 22.0661 235.794 22.3445 234.96 21.8431L234.96 21.8428ZM256.216 22.5398C252.965 21.7574 252.388 21.2086 252.388 20.0548C252.388 18.9647 253.404 18.2312 254.917 18.2312C256.382 18.2312 257.834 18.7884 259.359 19.935C259.403 19.9696 259.462 19.9835 259.518 19.9744C259.546 19.9703 259.574 19.9605 259.598 19.9454C259.622 19.9303 259.643 19.9104 259.66 19.8869L261.247 17.6289C261.278 17.5841 261.291 17.529 261.284 17.4747C261.276 17.4204 261.249 17.3711 261.206 17.3367C259.392 15.868 257.351 15.1541 254.964 15.1541C251.455 15.1541 249.002 17.2797 249.002 20.3212C249.002 23.5827 251.118 24.7377 254.773 25.6291C257.882 26.3521 258.408 26.9577 258.408 28.0406C258.408 29.2409 257.346 29.9873 255.638 29.9873C253.741 29.9873 252.192 29.3409 250.461 27.8295C250.418 27.7928 250.363 27.7742 250.306 27.7775C250.278 27.7795 250.251 27.7871 250.226 27.7999C250.2 27.8127 250.178 27.8305 250.16 27.8522L248.38 29.9894C248.344 30.0323 248.326 30.0875 248.33 30.1434C248.334 30.1993 248.359 30.2515 248.4 30.289C250.414 32.1043 252.891 33.0618 255.566 33.0618C259.347 33.0618 261.791 30.9765 261.791 27.748C261.797 25.0237 260.181 23.5149 256.223 22.5429L256.216 22.5398ZM270.346 19.3044C268.708 19.3044 267.363 19.956 266.253 21.2913V19.7886C266.253 19.6698 266.158 19.5732 266.042 19.5732H263.131C263.074 19.5735 263.02 19.5963 262.981 19.6367C262.941 19.677 262.919 19.7315 262.919 19.7883V36.4878C262.919 36.6056 263.014 36.7032 263.131 36.7032H266.042C266.098 36.7028 266.152 36.6799 266.191 36.6395C266.231 36.5991 266.253 36.5446 266.253 36.4878V31.2169C267.363 32.4716 268.708 33.0866 270.346 33.0866C273.392 33.0866 276.476 30.7203 276.476 26.1963C276.481 21.6713 273.397 19.3041 270.349 19.3041L270.346 19.3044ZM273.091 26.1963C273.091 28.4989 271.686 30.1075 269.672 30.1075C267.682 30.1075 266.181 28.4263 266.181 26.1963C266.181 23.966 267.682 22.2851 269.672 22.2851C271.652 22.2851 273.091 23.9295 273.091 26.1963ZM284.378 19.3044C280.455 19.3044 277.382 22.3528 277.382 26.2457C277.382 30.0963 280.435 33.1116 284.331 33.1116C288.267 33.1116 291.349 30.0736 291.349 26.1963C291.349 22.3321 288.287 19.3051 284.378 19.3051V19.3044ZM284.378 30.1302C282.292 30.1302 280.718 28.4376 280.718 26.1951C280.718 23.9424 282.238 22.3075 284.331 22.3075C286.43 22.3075 288.013 23.9994 288.013 26.2442C288.013 28.4967 286.484 30.1302 284.378 30.1302ZM299.724 19.5732H296.521V16.2683C296.521 16.1498 296.427 16.0531 296.31 16.0531H293.399C293.342 16.0533 293.288 16.076 293.248 16.1163C293.208 16.1566 293.185 16.2112 293.185 16.2683V19.5732H291.787C291.731 19.5735 291.677 19.5963 291.637 19.6367C291.597 19.677 291.575 19.7315 291.575 19.7883V22.313C291.575 22.3698 291.597 22.4244 291.637 22.4647C291.677 22.5051 291.73 22.528 291.787 22.5284H293.185V29.0618C293.185 31.7004 294.487 33.0391 297.056 33.0391C298.099 33.0391 298.964 32.8211 299.78 32.3538C299.813 32.3355 299.841 32.3086 299.86 32.2758C299.879 32.2431 299.889 32.2057 299.888 32.1677V29.7626C299.888 29.7262 299.879 29.6904 299.861 29.6587C299.843 29.627 299.818 29.6003 299.787 29.5813C299.757 29.5615 299.721 29.5502 299.685 29.5485C299.649 29.5469 299.612 29.555 299.58 29.572C299.021 29.8559 298.479 29.9873 297.872 29.9873C296.939 29.9873 296.521 29.5584 296.521 28.6009V22.5298H299.724C299.78 22.5295 299.834 22.5066 299.874 22.4662C299.914 22.4258 299.936 22.3712 299.935 22.3144V19.7898C299.936 19.7616 299.932 19.7335 299.922 19.7073C299.911 19.681 299.896 19.6571 299.877 19.6369C299.857 19.6168 299.834 19.6009 299.808 19.5901C299.782 19.5794 299.754 19.574 299.726 19.5744L299.724 19.5732ZM310.883 19.5861V19.1801C310.883 17.986 311.337 17.4536 312.353 17.4536C312.96 17.4536 313.448 17.5752 313.994 17.7589C314.026 17.7697 314.06 17.7727 314.094 17.7675C314.127 17.7624 314.159 17.7492 314.186 17.7292C314.213 17.7092 314.235 17.6828 314.251 17.6524C314.266 17.622 314.274 17.5883 314.273 17.5542L314.273 15.079C314.273 15.0327 314.259 14.9876 314.232 14.9503C314.205 14.9131 314.166 14.8858 314.122 14.8726C313.547 14.6995 312.81 14.522 311.704 14.522C309.017 14.522 307.594 16.0498 307.594 18.9387V19.5603H306.196C306.14 19.5604 306.085 19.5831 306.045 19.6234C306.005 19.6637 305.983 19.7184 305.983 19.7755V22.313C305.983 22.4315 306.079 22.5284 306.196 22.5284H307.594V32.6033C307.594 32.7235 307.691 32.8189 307.808 32.8189H310.717C310.836 32.8189 310.93 32.7235 310.93 32.6033V22.5291H313.648L317.811 32.6033C317.339 33.6607 316.874 33.8716 316.24 33.8716C315.727 33.8716 315.186 33.7175 314.635 33.4112C314.583 33.3846 314.522 33.3788 314.466 33.3952C314.438 33.4047 314.413 33.4198 314.391 33.4397C314.37 33.4596 314.352 33.4839 314.34 33.5109L313.354 35.6959C313.331 35.7455 313.328 35.802 313.345 35.8539C313.362 35.9057 313.398 35.949 313.446 35.975C314.475 36.5377 315.404 36.7781 316.552 36.7781C318.701 36.7781 319.89 35.7662 320.936 33.0482L325.985 19.8802C325.998 19.8476 326.003 19.8123 325.999 19.7773C325.995 19.7424 325.982 19.709 325.962 19.6803C325.943 19.6515 325.917 19.6278 325.887 19.6115C325.857 19.5952 325.823 19.5867 325.789 19.5868H322.759C322.714 19.5865 322.671 19.6003 322.635 19.6262C322.598 19.6521 322.571 19.6887 322.556 19.7311L319.452 28.6782L316.053 19.7251C316.038 19.6846 316.011 19.6496 315.976 19.6249C315.94 19.6002 315.898 19.5869 315.855 19.5868H310.883V19.5861ZM304.414 19.5732H301.502C301.446 19.5734 301.392 19.5962 301.352 19.6365C301.312 19.6768 301.289 19.7313 301.289 19.7883V32.6033C301.289 32.7235 301.386 32.8189 301.502 32.8189H304.414C304.531 32.8189 304.627 32.7235 304.627 32.6033V19.7893C304.627 19.761 304.622 19.7329 304.611 19.7067C304.6 19.6805 304.585 19.6567 304.565 19.6367C304.545 19.6167 304.521 19.6008 304.495 19.59C304.469 19.5793 304.442 19.5738 304.414 19.5739V19.5732ZM302.975 13.7377C301.821 13.7377 300.887 14.6799 300.887 15.8435C300.887 16.1203 300.941 16.3944 301.045 16.6501C301.15 16.9058 301.304 17.1382 301.498 17.3339C301.692 17.5296 301.922 17.6849 302.176 17.7908C302.429 17.8967 302.701 17.9512 302.975 17.9512C304.128 17.9512 305.061 17.008 305.061 15.8435C305.061 15.2851 304.841 14.7496 304.45 14.3547C304.059 13.9598 303.528 13.7379 302.975 13.7377Z" fill="#1ED760"/>
<path d="M5.83807 13.1818L11.1115 29.7585H11.3139L16.598 13.1818H21.7116L14.1903 35H8.24574L0.713778 13.1818H5.83807ZM24.2525 35V18.6364H28.7908V35H24.2525ZM26.5323 16.527C25.8576 16.527 25.2788 16.3033 24.7958 15.8558C24.32 15.4013 24.082 14.858 24.082 14.2259C24.082 13.6009 24.32 13.0646 24.7958 12.6172C25.2788 12.1626 25.8576 11.9354 26.5323 11.9354C27.207 11.9354 27.7823 12.1626 28.2582 12.6172C28.7411 13.0646 28.9826 13.6009 28.9826 14.2259C28.9826 14.858 28.7411 15.4013 28.2582 15.8558C27.7823 16.3033 27.207 16.527 26.5323 16.527ZM39.8837 35.3196C38.2005 35.3196 36.7516 34.9787 35.5371 34.2969C34.3297 33.608 33.3993 32.6349 32.7459 31.3778C32.0925 30.1136 31.7658 28.6186 31.7658 26.8928C31.7658 25.2095 32.0925 23.7322 32.7459 22.4609C33.3993 21.1896 34.3191 20.1989 35.5051 19.4886C36.6983 18.7784 38.0975 18.4233 39.7026 18.4233C40.7821 18.4233 41.7871 18.5973 42.7175 18.9453C43.655 19.2862 44.4718 19.8011 45.1678 20.4901C45.8709 21.179 46.4178 22.0455 46.8084 23.0895C47.199 24.1264 47.3944 25.3409 47.3944 26.733V27.9794H33.5769V25.1669H43.1223C43.1223 24.5135 42.9803 23.9347 42.6962 23.4304C42.4121 22.9261 42.0179 22.532 41.5137 22.2479C41.0165 21.9567 40.4377 21.8111 39.7772 21.8111C39.0882 21.8111 38.4775 21.9709 37.9448 22.2905C37.4192 22.603 37.0073 23.0256 36.709 23.5582C36.4107 24.0838 36.258 24.6697 36.2509 25.3161V27.9901C36.2509 28.7997 36.4 29.4993 36.6983 30.0888C37.0037 30.6783 37.4334 31.1328 37.9874 31.4524C38.5414 31.772 39.1983 31.9318 39.9583 31.9318C40.4625 31.9318 40.9242 31.8608 41.3432 31.7188C41.7623 31.5767 42.1209 31.3636 42.4192 31.0795C42.7175 30.7955 42.9448 30.4474 43.101 30.0355L47.2985 30.3125C47.0854 31.321 46.6486 32.2017 45.9881 32.9545C45.3347 33.7003 44.4895 34.2827 43.4526 34.7017C42.4228 35.1136 41.2331 35.3196 39.8837 35.3196ZM53.4668 35L49.0137 18.6364H53.6053L56.1408 29.6307H56.29L58.932 18.6364H63.4384L66.123 29.5668H66.2615L68.7544 18.6364H73.3354L68.8929 35H64.0882L61.2757 24.7088H61.0733L58.2608 35H53.4668ZM82.8036 35.3196C81.1204 35.3196 79.6715 34.9787 78.457 34.2969C77.2496 33.608 76.3192 32.6349 75.6658 31.3778C75.0124 30.1136 74.6857 28.6186 74.6857 26.8928C74.6857 25.2095 75.0124 23.7322 75.6658 22.4609C76.3192 21.1896 77.239 20.1989 78.4251 19.4886C79.6183 18.7784 81.0174 18.4233 82.6225 18.4233C83.7021 18.4233 84.707 18.5973 85.6374 18.9453C86.5749 19.2862 87.3917 19.8011 88.0877 20.4901C88.7908 21.179 89.3377 22.0455 89.7283 23.0895C90.119 24.1264 90.3143 25.3409 90.3143 26.733V27.9794H76.4968V25.1669H86.0423C86.0423 24.5135 85.9002 23.9347 85.6161 23.4304C85.332 22.9261 84.9379 22.532 84.4336 22.2479C83.9364 21.9567 83.3576 21.8111 82.6971 21.8111C82.0082 21.8111 81.3974 21.9709 80.8647 22.2905C80.3391 22.603 79.9272 23.0256 79.6289 23.5582C79.3306 24.0838 79.1779 24.6697 79.1708 25.3161V27.9901C79.1708 28.7997 79.32 29.4993 79.6183 30.0888C79.9237 30.6783 80.3533 31.1328 80.9073 31.4524C81.4613 31.772 82.1183 31.9318 82.8782 31.9318C83.3825 31.9318 83.8441 31.8608 84.2631 31.7188C84.6822 31.5767 85.0408 31.3636 85.3391 31.0795C85.6374 30.7955 85.8647 30.4474 86.021 30.0355L90.2184 30.3125C90.0053 31.321 89.5685 32.2017 88.908 32.9545C88.2546 33.7003 87.4094 34.2827 86.3725 34.7017C85.3427 35.1136 84.1531 35.3196 82.8036 35.3196ZM93.2759 35V18.6364H97.6758V21.4915H97.8462C98.1445 20.4759 98.6452 19.7088 99.3484 19.1903C100.051 18.6648 100.861 18.402 101.777 18.402C102.005 18.402 102.25 18.4162 102.512 18.4446C102.775 18.473 103.006 18.5121 103.205 18.5618V22.5888C102.992 22.5249 102.697 22.468 102.321 22.4183C101.944 22.3686 101.6 22.3438 101.287 22.3438C100.62 22.3438 100.023 22.4893 99.4975 22.7805C98.979 23.0646 98.5671 23.4624 98.2617 23.9737C97.9634 24.4851 97.8143 25.0746 97.8143 25.7422V35H93.2759ZM120.314 35H112.58V13.1818H120.378C122.573 13.1818 124.462 13.6186 126.046 14.4922C127.63 15.3587 128.848 16.6051 129.7 18.2315C130.559 19.858 130.989 21.804 130.989 24.0696C130.989 26.3423 130.559 28.2955 129.7 29.929C128.848 31.5625 127.623 32.8161 126.025 33.6896C124.434 34.5632 122.53 35 120.314 35ZM117.193 31.0476H120.123C121.486 31.0476 122.633 30.8061 123.564 30.3232C124.501 29.8331 125.204 29.0767 125.673 28.054C126.149 27.0241 126.387 25.696 126.387 24.0696C126.387 22.4574 126.149 21.1399 125.673 20.1172C125.204 19.0945 124.505 18.3416 123.574 17.8587C122.644 17.3757 121.497 17.1342 120.133 17.1342H117.193V31.0476ZM138.987 35.3089C137.943 35.3089 137.013 35.1278 136.196 34.7656C135.379 34.3963 134.733 33.853 134.257 33.1357C133.788 32.4112 133.554 31.5092 133.554 30.4297C133.554 29.5206 133.721 28.7571 134.055 28.1392C134.388 27.5213 134.843 27.0241 135.418 26.6477C135.993 26.2713 136.647 25.9872 137.378 25.7955C138.117 25.6037 138.891 25.4688 139.701 25.3906C140.653 25.2912 141.42 25.1989 142.002 25.1136C142.584 25.0213 143.007 24.8864 143.27 24.7088C143.532 24.5312 143.664 24.2685 143.664 23.9205V23.8565C143.664 23.1818 143.451 22.6598 143.025 22.2905C142.606 21.9212 142.009 21.7365 141.235 21.7365C140.418 21.7365 139.768 21.9176 139.285 22.2798C138.802 22.6349 138.483 23.0824 138.327 23.6222L134.129 23.2812C134.342 22.2869 134.761 21.4276 135.386 20.7031C136.011 19.9716 136.817 19.4105 137.805 19.0199C138.799 18.6222 139.949 18.4233 141.256 18.4233C142.165 18.4233 143.035 18.5298 143.866 18.7429C144.704 18.956 145.447 19.2862 146.093 19.7337C146.746 20.1811 147.261 20.7564 147.638 21.4595C148.014 22.1555 148.202 22.9901 148.202 23.9631V35H143.898V32.7308H143.77C143.508 33.2422 143.156 33.6932 142.716 34.0838C142.275 34.4673 141.746 34.7692 141.128 34.9893C140.51 35.2024 139.797 35.3089 138.987 35.3089ZM140.287 32.1768C140.954 32.1768 141.544 32.0455 142.055 31.7827C142.567 31.5128 142.968 31.1506 143.259 30.696C143.55 30.2415 143.696 29.7266 143.696 29.1513V27.4148C143.554 27.5071 143.358 27.5923 143.11 27.6705C142.868 27.7415 142.595 27.8089 142.29 27.8729C141.984 27.9297 141.679 27.983 141.373 28.0327C141.068 28.0753 140.791 28.1143 140.542 28.1499C140.01 28.228 139.545 28.3523 139.147 28.5227C138.749 28.6932 138.44 28.924 138.22 29.2152C138 29.4993 137.89 29.8544 137.89 30.2805C137.89 30.8984 138.113 31.3707 138.561 31.6974C139.015 32.017 139.591 32.1768 140.287 32.1768ZM160.427 18.6364V22.0455H150.573V18.6364H160.427ZM152.81 14.7159H157.348V29.9716C157.348 30.3906 157.412 30.7173 157.54 30.9517C157.668 31.179 157.845 31.3388 158.073 31.4311C158.307 31.5234 158.577 31.5696 158.882 31.5696C159.095 31.5696 159.308 31.5518 159.521 31.5163C159.735 31.4737 159.898 31.4418 160.012 31.4205L160.725 34.7976C160.498 34.8686 160.178 34.9503 159.767 35.0426C159.355 35.142 158.854 35.2024 158.264 35.2237C157.171 35.2663 156.212 35.1207 155.388 34.7869C154.571 34.4531 153.936 33.9347 153.481 33.2315C153.026 32.5284 152.803 31.6406 152.81 30.5682V14.7159ZM168.05 35.3089C167.006 35.3089 166.075 35.1278 165.258 34.7656C164.442 34.3963 163.795 33.853 163.319 33.1357C162.851 32.4112 162.616 31.5092 162.616 30.4297C162.616 29.5206 162.783 28.7571 163.117 28.1392C163.451 27.5213 163.905 27.0241 164.481 26.6477C165.056 26.2713 165.709 25.9872 166.441 25.7955C167.18 25.6037 167.954 25.4688 168.763 25.3906C169.715 25.2912 170.482 25.1989 171.064 25.1136C171.647 25.0213 172.069 24.8864 172.332 24.7088C172.595 24.5312 172.726 24.2685 172.726 23.9205V23.8565C172.726 23.1818 172.513 22.6598 172.087 22.2905C171.668 21.9212 171.072 21.7365 170.297 21.7365C169.481 21.7365 168.831 21.9176 168.348 22.2798C167.865 22.6349 167.545 23.0824 167.389 23.6222L163.192 23.2812C163.405 22.2869 163.824 21.4276 164.449 20.7031C165.074 19.9716 165.88 19.4105 166.867 19.0199C167.861 18.6222 169.012 18.4233 170.319 18.4233C171.228 18.4233 172.098 18.5298 172.929 18.7429C173.767 18.956 174.509 19.2862 175.155 19.7337C175.809 20.1811 176.324 20.7564 176.7 21.4595C177.077 22.1555 177.265 22.9901 177.265 23.9631V35H172.961V32.7308H172.833C172.57 33.2422 172.219 33.6932 171.778 34.0838C171.338 34.4673 170.809 34.7692 170.191 34.9893C169.573 35.2024 168.859 35.3089 168.05 35.3089ZM169.349 32.1768C170.017 32.1768 170.606 32.0455 171.118 31.7827C171.629 31.5128 172.03 31.1506 172.322 30.696C172.613 30.2415 172.758 29.7266 172.758 29.1513V27.4148C172.616 27.5071 172.421 27.5923 172.172 27.6705C171.931 27.7415 171.657 27.8089 171.352 27.8729C171.047 27.9297 170.741 27.983 170.436 28.0327C170.131 28.0753 169.854 28.1143 169.605 28.1499C169.072 28.228 168.607 28.3523 168.209 28.5227C167.812 28.6932 167.503 28.924 167.282 29.2152C167.062 29.4993 166.952 29.8544 166.952 30.2805C166.952 30.8984 167.176 31.3707 167.623 31.6974C168.078 32.017 168.653 32.1768 169.349 32.1768Z" fill="white"/>
</svg>
