<svg width="230" height="48" viewBox="0 0 230 48" fill="none" xmlns="http://www.w3.org/2000/svg">
<g clip-path="url(#clip0_163_7)">
<path d="M210 4C198.954 4 190 12.9545 190 24C190 35.0462 198.955 44 210 44C221.046 44 230 35.0462 230 24C230 12.9553 221.046 4.00109 210 4.00109L210 4.00016L210 4ZM219.172 32.8459C218.813 33.4334 218.044 33.6197 217.457 33.2591C212.761 30.3908 206.85 29.7411 199.888 31.3317C199.566 31.4051 199.227 31.3474 198.948 31.1714C198.668 30.9954 198.469 30.7155 198.396 30.3931C198.359 30.2335 198.354 30.0683 198.381 29.9069C198.409 29.7454 198.468 29.591 198.555 29.4523C198.642 29.3137 198.755 29.1936 198.889 29.0989C199.023 29.0042 199.173 28.9368 199.333 28.9005C206.952 27.1598 213.487 27.9092 218.759 31.1311C219.346 31.4917 219.532 32.2584 219.172 32.8459ZM221.62 27.4002C221.168 28.1338 220.208 28.3655 219.475 27.9141C214.099 24.6097 205.904 23.6527 199.546 25.5828C198.721 25.8319 197.85 25.3672 197.6 24.5439C197.351 23.7192 197.816 22.8498 198.64 22.5992C205.903 20.3952 214.933 21.4628 221.106 25.2566C221.839 25.7081 222.071 26.668 221.62 27.4002ZM221.83 21.7294C215.384 17.9006 204.749 17.5484 198.595 19.4166C197.607 19.7163 196.561 19.1583 196.262 18.17C195.962 17.1813 196.52 16.1369 197.509 15.8364C204.573 13.6917 216.318 14.1063 223.739 18.5119C224.63 19.0394 224.921 20.1875 224.393 21.0752C223.868 21.9642 222.717 22.2572 221.831 21.7294H221.83Z" fill="#1ED760"/>
</g>
<path d="M5.83807 13.1818L11.1115 29.7585H11.3139L16.598 13.1818H21.7116L14.1903 35H8.24574L0.713778 13.1818H5.83807ZM24.2525 35V18.6364H28.7908V35H24.2525ZM26.5323 16.527C25.8576 16.527 25.2788 16.3033 24.7958 15.8558C24.32 15.4013 24.082 14.858 24.082 14.2259C24.082 13.6009 24.32 13.0646 24.7958 12.6172C25.2788 12.1626 25.8576 11.9354 26.5323 11.9354C27.207 11.9354 27.7823 12.1626 28.2582 12.6172C28.7411 13.0646 28.9826 13.6009 28.9826 14.2259C28.9826 14.858 28.7411 15.4013 28.2582 15.8558C27.7823 16.3033 27.207 16.527 26.5323 16.527ZM39.8837 35.3196C38.2005 35.3196 36.7516 34.9787 35.5371 34.2969C34.3297 33.608 33.3993 32.6349 32.7459 31.3778C32.0925 30.1136 31.7658 28.6186 31.7658 26.8928C31.7658 25.2095 32.0925 23.7322 32.7459 22.4609C33.3993 21.1896 34.3191 20.1989 35.5051 19.4886C36.6983 18.7784 38.0975 18.4233 39.7026 18.4233C40.7821 18.4233 41.7871 18.5973 42.7175 18.9453C43.655 19.2862 44.4718 19.8011 45.1678 20.4901C45.8709 21.179 46.4178 22.0455 46.8084 23.0895C47.199 24.1264 47.3944 25.3409 47.3944 26.733V27.9794H33.5769V25.1669H43.1223C43.1223 24.5135 42.9803 23.9347 42.6962 23.4304C42.4121 22.9261 42.0179 22.532 41.5137 22.2479C41.0165 21.9567 40.4377 21.8111 39.7772 21.8111C39.0882 21.8111 38.4775 21.9709 37.9448 22.2905C37.4192 22.603 37.0073 23.0256 36.709 23.5582C36.4107 24.0838 36.258 24.6697 36.2509 25.3161V27.9901C36.2509 28.7997 36.4 29.4993 36.6983 30.0888C37.0037 30.6783 37.4334 31.1328 37.9874 31.4524C38.5414 31.772 39.1983 31.9318 39.9583 31.9318C40.4625 31.9318 40.9242 31.8608 41.3432 31.7188C41.7623 31.5767 42.1209 31.3636 42.4192 31.0795C42.7175 30.7955 42.9448 30.4474 43.101 30.0355L47.2985 30.3125C47.0854 31.321 46.6486 32.2017 45.9881 32.9545C45.3347 33.7003 44.4895 34.2827 43.4526 34.7017C42.4228 35.1136 41.2331 35.3196 39.8837 35.3196ZM53.4668 35L49.0137 18.6364H53.6053L56.1408 29.6307H56.29L58.932 18.6364H63.4384L66.123 29.5668H66.2615L68.7544 18.6364H73.3354L68.8929 35H64.0882L61.2757 24.7088H61.0733L58.2608 35H53.4668ZM82.8036 35.3196C81.1204 35.3196 79.6715 34.9787 78.457 34.2969C77.2496 33.608 76.3192 32.6349 75.6658 31.3778C75.0124 30.1136 74.6857 28.6186 74.6857 26.8928C74.6857 25.2095 75.0124 23.7322 75.6658 22.4609C76.3192 21.1896 77.239 20.1989 78.4251 19.4886C79.6183 18.7784 81.0174 18.4233 82.6225 18.4233C83.7021 18.4233 84.707 18.5973 85.6374 18.9453C86.5749 19.2862 87.3917 19.8011 88.0877 20.4901C88.7908 21.179 89.3377 22.0455 89.7283 23.0895C90.119 24.1264 90.3143 25.3409 90.3143 26.733V27.9794H76.4968V25.1669H86.0423C86.0423 24.5135 85.9002 23.9347 85.6161 23.4304C85.332 22.9261 84.9379 22.532 84.4336 22.2479C83.9364 21.9567 83.3576 21.8111 82.6971 21.8111C82.0082 21.8111 81.3974 21.9709 80.8647 22.2905C80.3391 22.603 79.9272 23.0256 79.6289 23.5582C79.3306 24.0838 79.1779 24.6697 79.1708 25.3161V27.9901C79.1708 28.7997 79.32 29.4993 79.6183 30.0888C79.9237 30.6783 80.3533 31.1328 80.9073 31.4524C81.4613 31.772 82.1183 31.9318 82.8782 31.9318C83.3825 31.9318 83.8441 31.8608 84.2631 31.7188C84.6822 31.5767 85.0408 31.3636 85.3391 31.0795C85.6374 30.7955 85.8647 30.4474 86.021 30.0355L90.2184 30.3125C90.0053 31.321 89.5685 32.2017 88.908 32.9545C88.2546 33.7003 87.4094 34.2827 86.3725 34.7017C85.3427 35.1136 84.1531 35.3196 82.8036 35.3196ZM93.2759 35V18.6364H97.6758V21.4915H97.8462C98.1445 20.4759 98.6452 19.7088 99.3484 19.1903C100.051 18.6648 100.861 18.402 101.777 18.402C102.005 18.402 102.25 18.4162 102.512 18.4446C102.775 18.473 103.006 18.5121 103.205 18.5618V22.5888C102.992 22.5249 102.697 22.468 102.321 22.4183C101.944 22.3686 101.6 22.3438 101.287 22.3438C100.62 22.3438 100.023 22.4893 99.4975 22.7805C98.979 23.0646 98.5671 23.4624 98.2617 23.9737C97.9634 24.4851 97.8143 25.0746 97.8143 25.7422V35H93.2759ZM120.314 35H112.58V13.1818H120.378C122.573 13.1818 124.462 13.6186 126.046 14.4922C127.63 15.3587 128.848 16.6051 129.7 18.2315C130.559 19.858 130.989 21.804 130.989 24.0696C130.989 26.3423 130.559 28.2955 129.7 29.929C128.848 31.5625 127.623 32.8161 126.025 33.6896C124.434 34.5632 122.53 35 120.314 35ZM117.193 31.0476H120.123C121.486 31.0476 122.633 30.8061 123.564 30.3232C124.501 29.8331 125.204 29.0767 125.673 28.054C126.149 27.0241 126.387 25.696 126.387 24.0696C126.387 22.4574 126.149 21.1399 125.673 20.1172C125.204 19.0945 124.505 18.3416 123.574 17.8587C122.644 17.3757 121.497 17.1342 120.133 17.1342H117.193V31.0476ZM138.987 35.3089C137.943 35.3089 137.013 35.1278 136.196 34.7656C135.379 34.3963 134.733 33.853 134.257 33.1357C133.788 32.4112 133.554 31.5092 133.554 30.4297C133.554 29.5206 133.721 28.7571 134.055 28.1392C134.388 27.5213 134.843 27.0241 135.418 26.6477C135.993 26.2713 136.647 25.9872 137.378 25.7955C138.117 25.6037 138.891 25.4688 139.701 25.3906C140.653 25.2912 141.42 25.1989 142.002 25.1136C142.584 25.0213 143.007 24.8864 143.27 24.7088C143.532 24.5312 143.664 24.2685 143.664 23.9205V23.8565C143.664 23.1818 143.451 22.6598 143.025 22.2905C142.606 21.9212 142.009 21.7365 141.235 21.7365C140.418 21.7365 139.768 21.9176 139.285 22.2798C138.802 22.6349 138.483 23.0824 138.327 23.6222L134.129 23.2812C134.342 22.2869 134.761 21.4276 135.386 20.7031C136.011 19.9716 136.817 19.4105 137.805 19.0199C138.799 18.6222 139.949 18.4233 141.256 18.4233C142.165 18.4233 143.035 18.5298 143.866 18.7429C144.704 18.956 145.447 19.2862 146.093 19.7337C146.746 20.1811 147.261 20.7564 147.638 21.4595C148.014 22.1555 148.202 22.9901 148.202 23.9631V35H143.898V32.7308H143.77C143.508 33.2422 143.156 33.6932 142.716 34.0838C142.275 34.4673 141.746 34.7692 141.128 34.9893C140.51 35.2024 139.797 35.3089 138.987 35.3089ZM140.287 32.1768C140.954 32.1768 141.544 32.0455 142.055 31.7827C142.567 31.5128 142.968 31.1506 143.259 30.696C143.55 30.2415 143.696 29.7266 143.696 29.1513V27.4148C143.554 27.5071 143.358 27.5923 143.11 27.6705C142.868 27.7415 142.595 27.8089 142.29 27.8729C141.984 27.9297 141.679 27.983 141.373 28.0327C141.068 28.0753 140.791 28.1143 140.542 28.1499C140.01 28.228 139.545 28.3523 139.147 28.5227C138.749 28.6932 138.44 28.924 138.22 29.2152C138 29.4993 137.89 29.8544 137.89 30.2805C137.89 30.8984 138.113 31.3707 138.561 31.6974C139.015 32.017 139.591 32.1768 140.287 32.1768ZM160.427 18.6364V22.0455H150.573V18.6364H160.427ZM152.81 14.7159H157.348V29.9716C157.348 30.3906 157.412 30.7173 157.54 30.9517C157.668 31.179 157.845 31.3388 158.073 31.4311C158.307 31.5234 158.577 31.5696 158.882 31.5696C159.095 31.5696 159.308 31.5518 159.521 31.5163C159.735 31.4737 159.898 31.4418 160.012 31.4205L160.725 34.7976C160.498 34.8686 160.178 34.9503 159.767 35.0426C159.355 35.142 158.854 35.2024 158.264 35.2237C157.171 35.2663 156.212 35.1207 155.388 34.7869C154.571 34.4531 153.936 33.9347 153.481 33.2315C153.026 32.5284 152.803 31.6406 152.81 30.5682V14.7159ZM168.05 35.3089C167.006 35.3089 166.075 35.1278 165.258 34.7656C164.442 34.3963 163.795 33.853 163.319 33.1357C162.851 32.4112 162.616 31.5092 162.616 30.4297C162.616 29.5206 162.783 28.7571 163.117 28.1392C163.451 27.5213 163.905 27.0241 164.481 26.6477C165.056 26.2713 165.709 25.9872 166.441 25.7955C167.18 25.6037 167.954 25.4688 168.763 25.3906C169.715 25.2912 170.482 25.1989 171.064 25.1136C171.647 25.0213 172.069 24.8864 172.332 24.7088C172.595 24.5312 172.726 24.2685 172.726 23.9205V23.8565C172.726 23.1818 172.513 22.6598 172.087 22.2905C171.668 21.9212 171.072 21.7365 170.297 21.7365C169.481 21.7365 168.831 21.9176 168.348 22.2798C167.865 22.6349 167.545 23.0824 167.389 23.6222L163.192 23.2812C163.405 22.2869 163.824 21.4276 164.449 20.7031C165.074 19.9716 165.88 19.4105 166.867 19.0199C167.861 18.6222 169.012 18.4233 170.319 18.4233C171.228 18.4233 172.098 18.5298 172.929 18.7429C173.767 18.956 174.509 19.2862 175.155 19.7337C175.809 20.1811 176.324 20.7564 176.7 21.4595C177.077 22.1555 177.265 22.9901 177.265 23.9631V35H172.961V32.7308H172.833C172.57 33.2422 172.219 33.6932 171.778 34.0838C171.338 34.4673 170.809 34.7692 170.191 34.9893C169.573 35.2024 168.859 35.3089 168.05 35.3089ZM169.349 32.1768C170.017 32.1768 170.606 32.0455 171.118 31.7827C171.629 31.5128 172.03 31.1506 172.322 30.696C172.613 30.2415 172.758 29.7266 172.758 29.1513V27.4148C172.616 27.5071 172.421 27.5923 172.172 27.6705C171.931 27.7415 171.657 27.8089 171.352 27.8729C171.047 27.9297 170.741 27.983 170.436 28.0327C170.131 28.0753 169.854 28.1143 169.605 28.1499C169.072 28.228 168.607 28.3523 168.209 28.5227C167.812 28.6932 167.503 28.924 167.282 29.2152C167.062 29.4993 166.952 29.8544 166.952 30.2805C166.952 30.8984 167.176 31.3707 167.623 31.6974C168.078 32.017 168.653 32.1768 169.349 32.1768Z" fill="white"/>
<defs>
<clipPath id="clip0_163_7">
<rect width="40" height="40" fill="white" transform="translate(190 4)"/>
</clipPath>
</defs>
</svg>
